<?xml version="1.0" standalone="no"?>
<!DOCTYPE svg PUBLIC "-//W3C//DTD SVG 20010904//EN"
 "http://www.w3.org/TR/2001/REC-SVG-20010904/DTD/svg10.dtd">
<svg version="1.0" xmlns="http://www.w3.org/2000/svg"
 width="349.000000pt" height="271.000000pt" viewBox="0 0 349.000000 271.000000"
 preserveAspectRatio="xMidYMid meet">

<g transform="translate(0.000000,271.000000) scale(0.100000,-0.100000)"
fill="#000" stroke="none">
<path d="M1945 2541 c-228 -66 -362 -248 -328 -448 14 -79 49 -133 118 -180
118 -82 264 -75 333 15 23 31 27 44 26 101 0 36 -4 85 -9 108 -5 31 -4 47 6
59 11 14 15 10 35 -28 70 -138 46 -271 -60 -333 -124 -73 -312 -48 -430 56
-45 39 -93 135 -101 202 -6 45 2 107 21 170 5 15 -2 17 -49 17 -255 0 -404
-153 -432 -443 -11 -110 -9 -107 -65 -107 -97 0 -179 -42 -329 -168 -120 -100
-157 -117 -256 -117 -64 0 -89 5 -123 23 l-43 22 6 -22 c19 -62 81 -201 118
-263 106 -180 239 -265 418 -265 110 0 108 -2 102 83 -5 61 -2 81 17 125 103
240 512 238 537 -2 8 -76 -7 -72 -52 13 -21 39 -47 77 -60 85 -43 28 -144 31
-223 7 -88 -27 -126 -62 -148 -139 -21 -71 -8 -153 39 -250 46 -96 118 -165
191 -186 176 -51 302 -15 490 142 l49 40 31 -41 c63 -84 184 -137 308 -137
103 1 239 48 319 111 49 38 96 114 105 166 6 40 5 43 -22 53 -113 43 -182 176
-171 330 12 169 108 285 234 284 59 -1 103 -24 103 -54 0 -23 -13 -25 -76 -9
-62 16 -98 -1 -138 -65 -50 -79 -61 -115 -61 -196 0 -65 4 -83 30 -129 91
-165 302 -185 506 -49 79 53 141 133 181 233 32 79 33 81 32 250 0 158 -2 175
-26 243 -85 236 -247 362 -464 362 l-83 0 -16 56 c-41 142 -142 236 -300 280
-68 19 -216 16 -290 -5z m-305 -966 c0 -8 -7 -15 -15 -15 -8 0 -15 7 -15 15 0
8 7 15 15 15 8 0 15 -7 15 -15z m81 5 c15 -9 19 -22 19 -63 0 -66 -20 -97 -62
-97 l-31 0 7 53 c3 28 6 64 6 79 0 17 6 28 18 31 9 3 18 5 20 6 2 0 12 -4 23
-9z m169 -5 c0 -8 -7 -15 -15 -15 -8 0 -15 7 -15 15 0 8 7 15 15 15 8 0 15 -7
15 -15z m-260 -67 c0 -57 -9 -88 -26 -88 -10 0 -12 13 -8 53 7 65 11 77 24 77
5 0 10 -19 10 -42z m206 30 c3 -4 -3 -11 -13 -15 -26 -9 -33 -23 -33 -65 0
-27 -4 -38 -15 -38 -16 0 -19 29 -9 92 6 33 10 37 36 36 16 -1 31 -5 34 -10z
m44 -30 c0 -57 -9 -88 -26 -88 -10 0 -12 13 -8 53 7 65 11 77 24 77 5 0 10
-19 10 -42z m53 10 l3 -33 13 33 c12 29 49 48 39 20 -3 -7 -13 -37 -23 -65
-18 -50 -41 -69 -50 -40 -2 6 -6 36 -10 65 -4 42 -3 52 9 52 9 0 16 -12 19
-32z m135 20 c7 -7 12 -25 12 -40 0 -23 -4 -28 -25 -28 -14 0 -25 -4 -25 -10
0 -5 9 -10 20 -10 11 0 20 -7 20 -16 0 -11 -8 -14 -32 -12 -31 3 -33 5 -36 47
-5 61 34 101 66 69z"/>
<path d="M1687 1508 c-7 -55 -2 -72 13 -48 12 19 13 100 1 100 -4 0 -11 -23
-14 -52z"/>
<path d="M2030 1505 c0 -8 5 -15 10 -15 6 0 10 7 10 15 0 8 -4 15 -10 15 -5 0
-10 -7 -10 -15z"/>
<path d="M770 357 c-54 -27 -64 -94 -21 -138 28 -28 61 -36 95 -23 29 11 17
24 -23 24 -64 0 -93 58 -50 101 15 15 30 20 50 17 33 -5 50 9 28 23 -20 12
-50 11 -79 -4z"/>
<path d="M904 357 c-3 -8 -4 -47 -2 -88 l3 -74 53 -3 c42 -2 52 0 52 12 0 12
-11 16 -40 16 l-40 0 0 69 c0 65 -13 100 -26 68z"/>
<path d="M1075 345 c-19 -18 -25 -35 -25 -65 0 -80 77 -117 137 -66 22 19 28
32 28 66 0 34 -6 47 -28 66 -37 31 -81 31 -112 -1z m103 -37 c19 -40 -2 -82
-43 -86 -34 -4 -55 18 -55 59 0 61 72 80 98 27z"/>
<path d="M1267 363 c-4 -3 -7 -35 -7 -70 0 -50 4 -67 20 -83 25 -25 61 -26 91
-1 21 17 24 28 24 83 0 82 -18 87 -25 7 -6 -69 -25 -93 -57 -73 -13 8 -19 27
-21 70 -3 58 -12 81 -25 67z"/>
<path d="M1455 358 c-3 -8 -5 -48 -3 -89 l3 -74 47 -3 c41 -3 52 1 74 23 23
23 26 33 21 72 -2 25 -12 52 -20 60 -22 22 -115 30 -122 11z m99 -34 c18 -18
21 -56 6 -85 -8 -13 -21 -19 -45 -19 l-35 0 0 60 c0 60 0 60 29 60 16 0 37 -7
45 -16z"/>
<path d="M1736 357 c-12 -9 -17 -23 -14 -42 2 -25 10 -32 46 -43 31 -10 42
-19 42 -34 0 -19 -4 -20 -45 -15 -25 4 -45 3 -45 -1 0 -17 26 -32 55 -32 45 0
67 20 63 55 -2 25 -10 32 -45 43 -32 10 -43 19 -43 34 0 19 4 20 45 15 47 -7
60 4 26 23 -27 14 -64 13 -85 -3z"/>
<path d="M1890 280 l0 -91 53 3 c63 4 69 22 9 26 -38 3 -43 6 -40 25 2 17 11
23 41 25 20 2 37 7 37 12 0 5 -17 10 -37 12 -31 2 -39 7 -41 26 -3 20 1 22 43
22 66 0 55 24 -13 28 l-52 3 0 -91z"/>
<path d="M2044 357 c-10 -26 1 -160 13 -164 7 -3 13 9 15 29 2 26 8 34 26 36
28 4 52 -14 52 -39 0 -21 15 -33 30 -24 7 4 7 11 2 18 -15 20 -23 65 -12 72
18 11 11 53 -12 69 -28 20 -107 21 -114 3z m101 -47 c0 -22 -5 -25 -37 -28
-36 -3 -38 -2 -38 28 0 30 2 31 38 28 32 -3 37 -6 37 -28z"/>
<path d="M2220 356 c0 -20 50 -137 66 -155 11 -12 18 -4 42 50 39 87 45 106
32 114 -6 4 -17 -10 -26 -32 -8 -21 -20 -51 -28 -67 l-12 -30 -26 64 c-24 61
-48 89 -48 56z"/>
<path d="M2414 357 c-10 -27 1 -160 14 -165 9 -3 12 18 12 82 0 78 -12 118
-26 83z"/>
<path d="M2529 355 c-80 -44 -41 -171 50 -163 50 4 53 28 3 28 -46 0 -65 18
-65 62 0 40 27 61 71 54 22 -3 32 -1 32 9 0 27 -50 32 -91 10z"/>
<path d="M2664 357 c-3 -8 -4 -47 -2 -88 l3 -74 53 0 c63 0 75 19 15 23 -38 3
-43 6 -43 28 0 21 5 24 35 24 44 0 46 18 3 22 -25 2 -34 8 -36 25 -3 19 2 22
40 25 60 4 54 22 -10 26 -38 2 -54 -1 -58 -11z"/>
<path d="M2838 358 c-40 -33 -21 -81 37 -92 27 -5 35 -12 35 -28 0 -19 -4 -20
-50 -15 -51 6 -65 -4 -31 -23 52 -27 116 3 109 51 -2 18 -14 27 -48 39 -62 22
-61 46 3 43 26 -1 47 0 47 2 0 2 -7 11 -16 19 -19 19 -64 21 -86 4z"/>
</g>
</svg>
